<svg xmlns="http://www.w3.org/2000/svg" xmlns:xlink="http://www.w3.org/1999/xlink" width="72" zoomAndPan="magnify" viewBox="0 0 54 54" height="72" preserveAspectRatio="xMidYMid meet" version="1.0"><defs><clipPath id="b53b831f9d"><path d="M 0.492188 0 L 53.507812 0 L 53.507812 53.019531 L 0.492188 53.019531 Z M 0.492188 0 " clip-rule="nonzero"/></clipPath><clipPath id="7e663e2cf2"><path d="M 9.304688 8.078125 L 44.648438 8.078125 L 44.648438 44.894531 L 9.304688 44.894531 Z M 9.304688 8.078125 " clip-rule="nonzero"/></clipPath></defs><g clip-path="url(#b53b831f9d)"><path fill="#b91646" d="M 53.507812 26.507812 C 53.507812 27.378906 53.464844 28.242188 53.382812 29.109375 C 53.296875 29.972656 53.167969 30.828125 53 31.679688 C 52.832031 32.53125 52.621094 33.375 52.367188 34.203125 C 52.117188 35.035156 51.824219 35.851562 51.492188 36.652344 C 51.160156 37.457031 50.789062 38.238281 50.378906 39.003906 C 49.96875 39.769531 49.523438 40.515625 49.042969 41.238281 C 48.558594 41.957031 48.042969 42.65625 47.492188 43.328125 C 46.941406 43.996094 46.359375 44.640625 45.746094 45.253906 C 45.128906 45.867188 44.488281 46.449219 43.816406 47 C 43.144531 47.550781 42.449219 48.066406 41.726562 48.550781 C 41.003906 49.03125 40.261719 49.480469 39.496094 49.886719 C 38.730469 50.296875 37.945312 50.667969 37.144531 51 C 36.34375 51.332031 35.527344 51.625 34.695312 51.875 C 33.863281 52.128906 33.023438 52.339844 32.171875 52.507812 C 31.320312 52.679688 30.460938 52.804688 29.597656 52.890625 C 28.734375 52.976562 27.867188 53.019531 27 53.019531 C 26.132812 53.019531 25.265625 52.976562 24.402344 52.890625 C 23.539062 52.804688 22.679688 52.679688 21.828125 52.507812 C 20.976562 52.339844 20.136719 52.128906 19.304688 51.875 C 18.472656 51.625 17.65625 51.332031 16.855469 51 C 16.054688 50.667969 15.269531 50.296875 14.503906 49.886719 C 13.738281 49.480469 12.996094 49.03125 12.273438 48.550781 C 11.550781 48.066406 10.855469 47.550781 10.183594 47 C 9.511719 46.449219 8.871094 45.867188 8.253906 45.253906 C 7.640625 44.640625 7.058594 43.996094 6.507812 43.328125 C 5.957031 42.65625 5.441406 41.957031 4.957031 41.238281 C 4.476562 40.515625 4.03125 39.769531 3.621094 39.003906 C 3.210938 38.238281 2.839844 37.457031 2.507812 36.652344 C 2.175781 35.851562 1.882812 35.035156 1.632812 34.203125 C 1.378906 33.375 1.167969 32.53125 1 31.679688 C 0.832031 30.828125 0.703125 29.972656 0.617188 29.109375 C 0.535156 28.242188 0.492188 27.378906 0.492188 26.507812 C 0.492188 25.640625 0.535156 24.773438 0.617188 23.910156 C 0.703125 23.046875 0.832031 22.1875 1 21.335938 C 1.167969 20.484375 1.378906 19.644531 1.632812 18.8125 C 1.882812 17.984375 2.175781 17.167969 2.507812 16.363281 C 2.839844 15.5625 3.210938 14.777344 3.621094 14.011719 C 4.03125 13.246094 4.476562 12.503906 4.957031 11.78125 C 5.441406 11.058594 5.957031 10.363281 6.507812 9.691406 C 7.058594 9.019531 7.640625 8.378906 8.253906 7.765625 C 8.871094 7.152344 9.511719 6.566406 10.183594 6.015625 C 10.855469 5.464844 11.550781 4.949219 12.273438 4.46875 C 12.996094 3.984375 13.738281 3.539062 14.503906 3.128906 C 15.269531 2.722656 16.054688 2.351562 16.855469 2.019531 C 17.65625 1.6875 18.472656 1.394531 19.304688 1.140625 C 20.136719 0.890625 20.976562 0.679688 21.828125 0.507812 C 22.679688 0.339844 23.539062 0.210938 24.402344 0.128906 C 25.265625 0.0429688 26.132812 0 27 0 C 27.867188 0 28.734375 0.0429688 29.597656 0.128906 C 30.460938 0.210938 31.320312 0.339844 32.171875 0.507812 C 33.023438 0.679688 33.863281 0.890625 34.695312 1.140625 C 35.527344 1.394531 36.34375 1.6875 37.144531 2.019531 C 37.945312 2.351562 38.730469 2.722656 39.496094 3.128906 C 40.261719 3.539062 41.003906 3.984375 41.726562 4.46875 C 42.449219 4.949219 43.144531 5.464844 43.816406 6.015625 C 44.488281 6.566406 45.128906 7.152344 45.746094 7.765625 C 46.359375 8.378906 46.941406 9.019531 47.492188 9.691406 C 48.042969 10.363281 48.558594 11.058594 49.042969 11.78125 C 49.523438 12.503906 49.96875 13.246094 50.378906 14.011719 C 50.789062 14.777344 51.160156 15.5625 51.492188 16.363281 C 51.824219 17.167969 52.117188 17.984375 52.367188 18.8125 C 52.621094 19.644531 52.832031 20.484375 53 21.335938 C 53.167969 22.1875 53.296875 23.046875 53.382812 23.910156 C 53.464844 24.773438 53.507812 25.640625 53.507812 26.507812 Z M 53.507812 26.507812 " fill-opacity="1" fill-rule="nonzero"/></g><g clip-path="url(#7e663e2cf2)"><path fill="#ffffff" d="M 24.039062 44.71875 C 24.15625 44.832031 24.308594 44.894531 24.46875 44.894531 C 24.539062 44.894531 24.613281 44.882812 24.679688 44.855469 L 38.488281 39.792969 C 38.628906 39.742188 38.746094 39.640625 38.820312 39.507812 L 39.792969 37.679688 L 40.511719 37.714844 C 40.523438 37.714844 40.535156 37.714844 40.542969 37.714844 C 40.757812 37.714844 40.960938 37.601562 41.070312 37.414062 L 44.007812 32.425781 C 44.007812 32.417969 44.011719 32.414062 44.015625 32.410156 C 44.023438 32.390625 44.03125 32.367188 44.042969 32.347656 C 44.046875 32.332031 44.054688 32.3125 44.0625 32.296875 C 44.066406 32.277344 44.070312 32.257812 44.074219 32.238281 C 44.078125 32.21875 44.085938 32.199219 44.085938 32.179688 C 44.089844 32.160156 44.089844 32.140625 44.089844 32.121094 C 44.089844 32.101562 44.089844 32.082031 44.089844 32.0625 C 44.085938 32.042969 44.082031 32.023438 44.078125 32.003906 C 44.074219 31.984375 44.070312 31.964844 44.066406 31.945312 C 44.0625 31.929688 44.054688 31.910156 44.046875 31.894531 C 44.039062 31.871094 44.03125 31.851562 44.019531 31.832031 C 44.019531 31.828125 44.015625 31.820312 44.015625 31.816406 L 43.25 30.441406 L 44.542969 28.359375 C 44.546875 28.351562 44.550781 28.34375 44.550781 28.339844 C 44.5625 28.320312 44.574219 28.300781 44.582031 28.277344 C 44.589844 28.261719 44.597656 28.246094 44.601562 28.226562 C 44.609375 28.207031 44.613281 28.1875 44.617188 28.167969 C 44.621094 28.148438 44.625 28.128906 44.628906 28.109375 C 44.632812 28.089844 44.632812 28.070312 44.632812 28.050781 C 44.632812 28.03125 44.632812 28.007812 44.632812 27.988281 C 44.632812 27.980469 44.632812 27.972656 44.632812 27.964844 L 43.195312 15.566406 C 43.167969 15.335938 43.011719 15.140625 42.792969 15.0625 L 23.445312 8.109375 C 23.4375 8.109375 23.429688 8.105469 23.421875 8.105469 C 23.402344 8.097656 23.378906 8.09375 23.355469 8.089844 C 23.339844 8.085938 23.320312 8.082031 23.304688 8.078125 C 23.28125 8.078125 23.261719 8.078125 23.238281 8.078125 C 23.21875 8.078125 23.203125 8.078125 23.183594 8.078125 C 23.164062 8.078125 23.140625 8.082031 23.121094 8.085938 C 23.101562 8.089844 23.085938 8.09375 23.066406 8.097656 C 23.046875 8.105469 23.027344 8.113281 23.007812 8.121094 C 22.992188 8.128906 22.976562 8.132812 22.960938 8.140625 C 22.941406 8.152344 22.921875 8.164062 22.902344 8.175781 C 22.886719 8.183594 22.875 8.195312 22.859375 8.207031 C 22.84375 8.21875 22.828125 8.234375 22.8125 8.246094 C 22.796875 8.261719 22.785156 8.273438 22.773438 8.289062 C 22.757812 8.304688 22.746094 8.320312 22.738281 8.335938 C 22.722656 8.355469 22.710938 8.371094 22.703125 8.390625 C 22.699219 8.398438 22.691406 8.402344 22.6875 8.410156 L 19.816406 14.078125 C 19.78125 14.144531 19.761719 14.21875 19.753906 14.292969 L 19.632812 15.5 L 16.585938 15.097656 C 16.574219 15.097656 16.5625 15.097656 16.550781 15.097656 C 16.539062 15.097656 16.53125 15.097656 16.523438 15.097656 C 16.488281 15.09375 16.457031 15.097656 16.425781 15.101562 C 16.421875 15.101562 16.414062 15.101562 16.410156 15.105469 C 16.375 15.109375 16.34375 15.117188 16.3125 15.128906 C 16.304688 15.128906 16.300781 15.132812 16.296875 15.132812 C 16.265625 15.144531 16.234375 15.160156 16.207031 15.175781 C 16.199219 15.179688 16.195312 15.183594 16.1875 15.1875 C 16.160156 15.203125 16.132812 15.222656 16.109375 15.242188 C 16.105469 15.246094 16.097656 15.253906 16.09375 15.257812 C 16.070312 15.28125 16.046875 15.304688 16.023438 15.332031 C 16.023438 15.335938 16.019531 15.339844 16.015625 15.34375 C 15.996094 15.371094 15.976562 15.402344 15.957031 15.4375 C 15.957031 15.4375 15.957031 15.441406 15.957031 15.441406 L 13.386719 20.777344 C 13.308594 20.941406 13.304688 21.132812 13.378906 21.296875 L 14.347656 23.425781 L 12.457031 23.804688 C 12.265625 23.84375 12.101562 23.96875 12.019531 24.144531 L 9.425781 29.6875 C 9.316406 29.921875 9.363281 30.203125 9.550781 30.382812 Z M 19.707031 16.75 L 19.609375 17.746094 C 19.609375 17.746094 19.605469 17.746094 19.605469 17.746094 L 19.359375 20.203125 L 17.359375 16.4375 Z M 43.324219 27.351562 L 37.578125 25.308594 L 37.476562 21.582031 L 42.886719 23.566406 Z M 18.488281 30.953125 L 20.789062 35.503906 L 19.304688 38.308594 L 15.089844 34.140625 L 17.226562 29.679688 Z M 20.042969 21.570312 L 22.3125 17.503906 L 22.152344 20.28125 L 19.753906 24.4375 Z M 22.980469 20.117188 L 23.199219 16.34375 L 29.511719 18.660156 L 29.511719 22.441406 Z M 23.25 15.492188 L 23.402344 12.832031 L 29.511719 15.058594 L 29.511719 17.789062 Z M 22.738281 20.902344 L 29.332031 23.246094 L 26.640625 28.253906 C 26.628906 28.277344 26.625 28.300781 26.617188 28.328125 L 19.757812 26.0625 Z M 32.128906 37.136719 L 31.902344 36.949219 L 32.613281 36.972656 Z M 30.722656 36.910156 C 30.742188 37 30.785156 37.085938 30.859375 37.152344 L 31.214844 37.445312 L 27.097656 38.828125 L 24.722656 36.710938 Z M 22.269531 35.808594 L 24.804688 31.144531 L 30.75 31.671875 L 28.515625 36.019531 Z M 24.824219 30.324219 L 23.628906 28.203125 L 31.992188 30.960938 Z M 22.476562 27.824219 L 24.105469 30.714844 L 21.609375 35.3125 L 19.285156 30.714844 L 21.054688 27.351562 Z M 21.242188 36.398438 C 21.25 36.410156 21.257812 36.417969 21.265625 36.429688 C 21.273438 36.4375 21.277344 36.449219 21.285156 36.457031 C 21.3125 36.492188 21.351562 36.523438 21.390625 36.546875 C 21.394531 36.550781 21.398438 36.554688 21.398438 36.554688 C 21.414062 36.5625 21.425781 36.566406 21.441406 36.570312 C 21.457031 36.578125 21.46875 36.582031 21.484375 36.585938 C 21.507812 36.59375 21.53125 36.597656 21.554688 36.597656 C 21.5625 36.601562 21.570312 36.601562 21.582031 36.605469 L 23.535156 36.667969 C 23.554688 36.734375 23.589844 36.792969 23.640625 36.839844 L 26.496094 39.390625 L 24.457031 43.402344 L 19.914062 38.910156 Z M 27.289062 39.628906 L 31.203125 38.3125 L 29.351562 41.835938 L 25.441406 43.269531 Z M 32.328125 37.933594 L 34.4375 37.222656 C 34.535156 37.191406 34.605469 37.125 34.65625 37.042969 L 35.089844 37.058594 C 35.09375 37.058594 35.09375 37.058594 35.09375 37.058594 L 35.878906 37.082031 L 34.292969 40.027344 L 30.496094 41.417969 Z M 29.417969 36.046875 L 31.632812 31.746094 L 35.390625 32.082031 L 36.886719 32.574219 L 34.855469 36.230469 Z M 27.394531 28.582031 L 30.113281 23.523438 L 36.59375 25.828125 L 34.015625 30.765625 Z M 36.75 25.015625 L 30.328125 22.730469 L 30.328125 18.960938 L 36.648438 21.277344 Z M 30.328125 18.085938 L 30.328125 15.355469 L 36.550781 17.625 L 36.625 20.398438 Z M 30.328125 14.484375 L 30.328125 11.886719 L 36.453125 14.085938 L 36.523438 16.746094 Z M 29.511719 14.1875 L 23.453125 11.980469 L 23.597656 9.46875 L 29.511719 11.59375 Z M 22.613281 12.320312 L 20.875 15.421875 L 20.964844 14.527344 L 22.683594 11.136719 Z M 20.414062 17.917969 L 22.503906 14.1875 L 22.421875 15.628906 L 20.25 19.515625 Z M 19.210938 21.667969 L 18.746094 26.253906 C 18.742188 26.304688 18.746094 26.351562 18.757812 26.398438 C 18.761719 26.40625 18.765625 26.414062 18.769531 26.425781 C 18.78125 26.460938 18.796875 26.496094 18.820312 26.53125 C 18.828125 26.542969 18.84375 26.554688 18.855469 26.566406 C 18.875 26.589844 18.902344 26.613281 18.929688 26.632812 C 18.9375 26.636719 18.941406 26.644531 18.949219 26.648438 C 18.964844 26.660156 18.984375 26.664062 19.003906 26.671875 C 19.011719 26.675781 19.015625 26.679688 19.023438 26.683594 L 20.265625 27.09375 L 18.832031 29.820312 L 16.792969 25.785156 L 19.015625 21.296875 Z M 14.476562 33.53125 L 10.71875 29.816406 L 12.851562 25.265625 L 16.613281 29.0625 Z M 35.449219 39.601562 L 36.792969 37.113281 L 38.667969 37.175781 L 37.84375 38.722656 Z M 35.773438 36.261719 L 37.679688 32.835938 L 40.566406 33.789062 C 40.609375 33.800781 40.652344 33.808594 40.695312 33.808594 C 40.835938 33.808594 40.96875 33.738281 41.042969 33.613281 L 41.777344 32.429688 L 42.554688 32.472656 L 40.238281 36.410156 Z M 42.398438 31.429688 L 42.519531 31.652344 L 42.269531 31.636719 Z M 42.019531 30.101562 C 42.015625 30.109375 42.011719 30.113281 42.007812 30.121094 C 41.996094 30.140625 41.988281 30.160156 41.980469 30.183594 C 41.972656 30.199219 41.964844 30.214844 41.957031 30.234375 C 41.953125 30.253906 41.949219 30.273438 41.941406 30.292969 C 41.9375 30.3125 41.933594 30.332031 41.933594 30.351562 C 41.929688 30.371094 41.929688 30.390625 41.929688 30.410156 C 41.929688 30.429688 41.929688 30.449219 41.929688 30.46875 C 41.929688 30.488281 41.933594 30.507812 41.9375 30.527344 C 41.941406 30.546875 41.945312 30.566406 41.949219 30.585938 C 41.949219 30.589844 41.949219 30.59375 41.953125 30.597656 L 40.519531 32.910156 L 34.800781 31.023438 L 37.375 26.105469 L 43.210938 28.179688 Z M 42.78125 22.65625 L 37.453125 20.699219 L 37.375 17.925781 L 42.445312 19.777344 Z M 37.351562 17.046875 L 37.28125 14.386719 L 42.019531 16.085938 L 42.339844 18.867188 Z M 16.644531 16.839844 L 18.542969 20.40625 L 16.332031 24.875 L 15.835938 23.894531 C 15.835938 23.886719 15.835938 23.878906 15.835938 23.871094 C 15.835938 23.851562 15.832031 23.828125 15.832031 23.804688 C 15.828125 23.789062 15.828125 23.773438 15.828125 23.757812 C 15.824219 23.753906 15.824219 23.753906 15.824219 23.75 C 15.820312 23.730469 15.8125 23.710938 15.804688 23.695312 C 15.800781 23.671875 15.792969 23.652344 15.785156 23.632812 C 15.785156 23.628906 15.785156 23.628906 15.785156 23.625 L 14.617188 21.050781 Z M 17.289062 28.582031 L 13.574219 24.832031 L 15.226562 24.503906 Z M 17.289062 28.582031 " fill-opacity="1" fill-rule="nonzero"/></g></svg>